<svg width="24" height="24" viewBox="0 0 24 24" fill="none" xmlns="http://www.w3.org/2000/svg">
<path d="M20.71 16.0898L15.8 20.9998H13V18.1998L17.91 13.2898C18.0969 13.1065 18.3482 13.0039 18.61 13.0039C18.8718 13.0039 19.1231 13.1065 19.31 13.2898L20.71 14.6898C20.8932 14.8767 20.9959 15.128 20.9959 15.3898C20.9959 15.6515 20.8932 15.9028 20.71 16.0898V16.0898Z" stroke="white" stroke-width="2" stroke-linecap="round" stroke-linejoin="round"/>
<path d="M17 9.26947C17.005 9.17954 17.005 9.0894 17 8.99947C16.9969 7.83222 16.6533 6.69124 16.0114 5.7163C15.3696 4.74137 14.4573 3.97483 13.3863 3.51059C12.3154 3.04635 11.1323 2.90457 9.98193 3.10263C8.8316 3.3007 7.76403 3.82999 6.90999 4.62567C6.05596 5.42135 5.45257 6.44887 5.17373 7.58232C4.89489 8.71578 4.95272 9.90596 5.34013 11.007C5.72755 12.1081 6.42772 13.0723 7.35487 13.7814C8.28202 14.4906 9.39589 14.9139 10.56 14.9995" stroke="white" stroke-width="2" stroke-linecap="round" stroke-linejoin="round"/>
<path d="M9 21C4.55 20.63 3 19 3 19V18C3.00351 16.9406 3.34339 15.9098 3.97065 15.0561C4.5979 14.2023 5.48009 13.5699 6.49 13.25" stroke="white" stroke-width="2" stroke-linecap="round" stroke-linejoin="round"/>
</svg>
